<svg class="navigation__logo navigation__logo--with-vertical-text" viewBox="0 0 309.6 302" xmlns="http://www.w3.org/2000/svg">
  <path class="navigation__path" d="M204.7 185.3c-.1 0-.1 0 0 0L99.4 147h-.1l4.9-13.6h.1l105.2 38.3h.1l-4.9 13.6zM183 156.7l26.5-9.6h.1l-5-13.6h-.1L161.9 149l21.1 7.7z" fill="#61594b"></path>
  <path class="navigation__path navigation__path--center" d="M138.5 104.6c-.3.6-.3 1.6 0 2.2l15.4 26.7c.3.6.9.6 1.3 0l15.4-26.7c.3-.6.3-1.6 0-2.2l-15.4-26.7c-.3-.6-.9-.6-1.3 0l-15.4 26.7z" fill="#F15A22"></path>
  <path class="navigation__path" d="M107 77.8c.3-.6.3-1.6 0-2.2l-6-10.5c-.3-.6-.9-.6-1.2 0l-6 10.5c-.3.6-.3 1.6 0 2.2l6 10.5c.3.6.9.6 1.2 0l6-10.5zM189.4 16.4c.3-.6.3-1.6 0-2.2l-7.1-12.3c-.3-.6-.9-.6-1.2 0L174 14.2c-.3.6-.3 1.6 0 2.2l7.1 12.3c.3.6.9.6 1.2 0l7.1-12.3z" fill="#61594b"></path>
  <path class="navigation__path" d="M114.8 130.8c.3.6 1.2 1.3 1.8 1.5l21.4 7.8c.6.2.9-.1.6-.7l-18.9-32.7c-.3-.6-.3-1.6 0-2.2l34.2-59.3c.3-.6.9-.6 1.3 0l16.4 28.5c.3.6.6 1.1.6 1.1s.3.5.6 1.1l16.5 28.6c.3.6.6 1.1.6 1.1s-.3.5-.6 1.1l-18.9 32.7c-.3.6-.1.9.6.7l21.4-7.8c.6-.2 1.5-.9 1.8-1.5l13.9-24.1c.3-.6.3-1.6 0-2.2L200 90.4c-.3-.6-.3-1.6 0-2.2l7.1-12.3c.3-.6.3-1.6 0-2.2l-16.5-28.6c-.3-.6-.9-.6-1.2 0l-7.1 12.3c-.3.6-.9.6-1.2 0l-25.8-44.8c-.3-.6-.9-.6-1.3 0L130.1 54c-.3.6-.9.6-1.3 0l-11.2-19.5c-.3-.6-.9-.6-1.2 0L105.1 54c-.3.6-.3 1.6 0 2.2l11.2 19.5c.3.6.3 1.6 0 2.2L101 104.6c-.3.6-.3 1.6 0 2.2l13.8 24zM125.9 162.1l-26.5 9.6h-.1l4.9 13.6h.1l42.7-15.5-21.1-7.7z" fill="#61594b"></path>
</svg>