<svg id="Layer_1" data-name="Layer 1" xmlns="http://www.w3.org/2000/svg" xmlns:xlink="http://www.w3.org/1999/xlink" viewBox="0 0 641.91 221.67">
  <defs>
    <style>
      .cls-1 {
        fill: url(#linear-gradient);
      }

      .cls-2 {
        fill: #58b8a6;
      }

      .cls-3 {
        fill: #48b7b1;
      }

      .cls-4 {
        fill: #575f6b;
      }
    </style>
    <linearGradient id="linear-gradient" x1="133.47" y1="-17.42" x2="133.47" y2="200.73" gradientTransform="matrix(1, 0, 0, -1, 0, 202.45)" gradientUnits="userSpaceOnUse">
      <stop offset="0" stop-color="#00b2b0"/>
      <stop offset="1" stop-color="#bfd99b"/>
    </linearGradient>
  </defs>
  <title>mask-makers-logo</title>
  <g>
    <path class="cls-1" d="M264.1,79A78.54,78.54,0,0,0,245.88,28.5,6.6,6.6,0,0,0,244,26.27,72.83,72.83,0,0,0,133.47,28a73.57,73.57,0,0,0-56-26.22C36.31,1.73,2.84,36.4,2.84,79a79.29,79.29,0,0,0,13.9,44.84c.08.15.14.32.23.46a173.29,173.29,0,0,0,17.78,22.5c20.35,22.09,63.68,62.27,97,72.75a6.54,6.54,0,0,0,2,.31H134a6.94,6.94,0,0,0,.77-.08h.06a6.6,6.6,0,0,0,1.82-.47c56-24.51,110.61-91.53,112.9-94.37a4.3,4.3,0,0,0,.29-.45l0,0A78.61,78.61,0,0,0,264.1,79ZM239,116.88s0,.08-.07.12c-1,1.18-4.53,5.46-10.05,11.61V103.39a73.24,73.24,0,0,0,19.79-41.3A66.47,66.47,0,0,1,250.89,79,65.45,65.45,0,0,1,239,116.88ZM77.45,14.93c20.13,0,39,10.32,50.51,27.62a6.62,6.62,0,0,0,11,0c11.49-17.29,30.37-27.62,50.51-27.62A60.08,60.08,0,0,1,234.09,35C241,64,228.83,83.22,222.34,91H43.53c-6.12-8-17.31-27.37-10.13-56.56A60,60,0,0,1,77.45,14.93ZM31,121.45a6.67,6.67,0,0,0-.92-1.64,66.27,66.27,0,0,1-11.78-58,73.53,73.53,0,0,0,18.24,41.4v25.48C34.24,125.83,32.38,123.36,31,121.45Zm102.54,84.74c-24.79-8.78-59.32-37.28-83.8-62.7V104.22h166v38.55C195.33,163.78,164.38,192,133.55,206.19Z"/>
    <path class="cls-2" d="M133.14,143.43c-21.17,0-40.91-2.22-55.58-6.26a6.25,6.25,0,0,1,3.31-12c13.42,3.69,32.47,5.81,52.26,5.81s38.84-2.12,52.26-5.81a6.25,6.25,0,0,1,3.31,12C174.05,141.21,154.31,143.43,133.14,143.43Z"/>
    <path class="cls-3" d="M133.14,172a154.1,154.1,0,0,1-35.53-4,6.25,6.25,0,0,1,2.9-12.16,143,143,0,0,0,32.63,3.63,143.47,143.47,0,0,0,32.4-3.58,6.25,6.25,0,0,1,2.87,12.17A154.21,154.21,0,0,1,133.14,172Z"/>
  </g>
  <g>
    <path class="cls-4" d="M302.79,42.24h15.58l12.35,32.53L343.8,42.24h15.74l9.2,60.86H352.92l-4.44-35h-.16l-14.61,35h-6.3l-14-35h-.16l-5.09,35H292.46Z"/>
    <path class="cls-4" d="M392.54,92.53l-4.2,10.57H371.55L395,42.24h17.27l22.92,60.86H418.28l-3.95-10.57ZM403.6,61.05h-.16L396.9,80.42h13.16Z"/>
    <path class="cls-4" d="M473.18,57.9a16.67,16.67,0,0,0-10.49-4c-2.91,0-6.78,1.69-6.78,5.08,0,3.55,4.28,4.92,7,5.81L467,66c8.47,2.5,15,6.78,15,16.63,0,6-1.45,12.27-6.3,16.39s-11.14,5.73-17.27,5.73A37.55,37.55,0,0,1,437,97.77L443.8,85c4,3.47,8.64,6.3,14.05,6.3,3.71,0,7.67-1.86,7.67-6.13,0-4.44-6.22-6-9.61-6.94-9.93-2.83-16.47-5.41-16.47-17.19,0-12.35,8.8-20.42,21-20.42a41.73,41.73,0,0,1,19.05,5Z"/>
    <path class="cls-4" d="M523,42.24h19.61L518.39,71.06l26.39,32h-20.5L503.86,76.71h-.15V103.1H487.88V42.24h15.83v25.1h.15Z"/>
    <path class="cls-4" d="M302.79,113.62h15.58l12.35,32.53,13.08-32.53h15.74l9.2,60.86H352.92l-4.44-35h-.16l-14.61,35h-6.3l-14-35h-.16l-5.09,35H292.46Z"/>
    <path class="cls-4" d="M392.54,163.91l-4.2,10.57H371.55L395,113.62h17.27l22.92,60.86H418.28l-3.95-10.57Zm11.06-31.48h-.16L396.9,151.8h13.16Z"/>
    <path class="cls-4" d="M475.2,113.62h19.61l-24.22,28.82,26.39,32h-20.5l-20.42-26.39h-.15v26.39H440.09V113.62h15.82v25.1h.15Z"/>
    <path class="cls-4" d="M517.09,127v10.17h17.84v13.4H517.09v10.49H535.9v13.4H501.27V113.62H535.9V127Z"/>
    <path class="cls-4" d="M594.35,174.48h-19.7l-14.93-23.41h-.16v23.41H543.74V113.62H567.4c12,0,21.15,5.73,21.15,18.73,0,8.4-4.68,15.66-13.32,17.19ZM559.56,140.9h1.53c5.17,0,11-1,11-7.59s-5.81-7.59-11-7.59h-1.53Z"/>
    <path class="cls-4" d="M632.05,129.28a16.65,16.65,0,0,0-10.49-4c-2.9,0-6.78,1.69-6.78,5.08,0,3.55,4.28,4.92,7,5.81l4,1.21c8.47,2.5,15,6.78,15,16.63,0,6.05-1.45,12.27-6.3,16.39s-11.14,5.73-17.27,5.73a37.55,37.55,0,0,1-21.39-6.94l6.78-12.75c4,3.47,8.64,6.3,14.05,6.3,3.71,0,7.67-1.86,7.67-6.13,0-4.44-6.22-6-9.61-6.94-9.93-2.83-16.47-5.41-16.47-17.19,0-12.35,8.8-20.42,21-20.42a41.73,41.73,0,0,1,19.05,5Z"/>
  </g>
</svg>
