<svg xmlns="http://www.w3.org/2000/svg" xmlns:xlink="http://www.w3.org/1999/xlink" version="1.1" id="Layer_1" x="0px" y="0px" viewBox="0 0 294.8 125.4" enable-background="new 0 0 294.8 125.4" xml:space="preserve"><script xmlns="">(function(){EventTarget.prototype.ol_originalAddEventListener=EventTarget.prototype.addEventListener,EventTarget.prototype.addEventListener=function(t,e){var n=this,r=arguments.length&gt;2&amp;&amp;void 0!==arguments[2]&amp;&amp;arguments[2];this.ol_originalAddEventListener(t,e,r),"click"===t&amp;&amp;setTimeout((function(){!window.OL_NOT_LOGIN_PAGE&amp;&amp;n.setAttribute&amp;&amp;n.setAttribute("data-ol-has-click-handler","")}),0)}})("")</script>
<g>
	<path fill-rule="evenodd" clip-rule="evenodd" fill="#695b8e" d="M71.5,125.4c-0.4-1.6-0.7-3.3-1-4.9c-1.5-8.1,1-14.6,2.6-21.2   c1.5-5.9,5.2-11.2,6.5-17.7c2.1-10.7-1.7-21.7-5-34.1C90,51.5,99.1,71,99.6,91.9c2.5-6.3,4-13.7,2.8-21.6   c-1.7-11.1-7-18.4-9.5-26.5c-3.5-11.1-4.6-21.5-3.6-31c-8.5,6.5-15.4,15.2-19.7,25.2c-3.5-1.1-7.3-1.7-11.1-1.7   c-20.5,0-37.1,16.6-37.1,37C9.1,75.6,0,86.3,0,99.1c0,14.5,11.8,26.3,26.3,26.3c0.8,0,1.7,0,2.5-0.1l0,0.1H71.5z"/>
	<path fill-rule="evenodd" clip-rule="evenodd" fill="#695b8e" d="M139.8,92.1c-2.4-9-7.1-14.8-15.1-17.9   c8.8,16.1,3.8,34.5-4.5,44.3c-1-9.6-5.2-14.5-11.5-16.5c2.6,7.2,1.9,15.3,1.1,23.4h35.4h2.2C138.1,119.6,142.8,103.4,139.8,92.1z"/>
	<path fill-rule="evenodd" clip-rule="evenodd" fill="#695b8e" d="M148.6,125.4H161c-4.7-7-11.5-12.5-10.7-23.9   C144.1,105.6,145,117.1,148.6,125.4z"/>
	<path fill-rule="evenodd" clip-rule="evenodd" fill="#695b8e" d="M266,67.8c-4.5,0-8.8,1-12.6,2.9C250,51.1,233,36.3,212.6,36.3   c-9.6,0-18.5,3.3-25.5,8.8C179.5,19,155.5,0,127,0c-6.8,0-13.3,1.1-19.4,3.1c0.4,2.5,0.9,5.2,1.6,8c5.5,21.7,21.1,37.1,35.3,47.1   c-4.7-21,4.1-32.6,15.9-42.2c-0.6,4.8-1.8,8.3-1.3,13.3c2.6,27.4,22,42.2,27.6,65c0.8,3.4,1.5,6.8,1.9,10.2   c0.8,7.8-0.2,14.7-2.6,20.8H266c0,0,0,0,0,0c15.9,0,28.8-12.9,28.8-28.8C294.8,80.7,281.9,67.8,266,67.8z"/>
</g>
</svg>