<svg xmlns="http://www.w3.org/2000/svg" viewBox="0 0 1505.5 950.21">
<defs>
<style>
.cls-1{fill:#2addae;}
.cls-2{fill:#d1d1d1;}
.cls-3{fill:#cc4c4c;}
.cls-4{fill:#ff4545;}
.cls-5{fill:#4fb99f;}
.cls-6{fill:#4885ff;}
.cls-7{fill:#15c2ff;}
.cls-8{fill:#fff;stroke:#000;}
.cls-10,.cls-8{stroke-miterlimit:10;}
.cls-9{fill:#ff5d5d;}
.cls-10{stroke:#fff;}
</style>
</defs>
<title>drew-flying-illustration</title>
<g id="Layer_2" data-name="Layer 2">

<polygon class="cls-1" points="1054.93 671.57 1123.84 620.11 1280.23 853.5 1070.76 790.27 1054.93 671.57"/>



<polygon class="cls-2" points="1463 656 1341 630.15 1341 580.87 1462 490 1463 656"/>



<polygon class="cls-2" points="1117 456 877 442.19 877 415.85 1117 394 1117 456"/>



<circle class="cls-3" cx="65" cy="65" r="65"/>



<rect class="cls-4" width="65" height="130"/>



<path class="cls-1" d="M-680-126a65,65,0,0,1,65-65,65,65,0,0,1,65,65" transform="translate(821 191)"/>



<path class="cls-5" d="M-680-61h65V-191h0a65,65,0,0,0-65,65Z" transform="translate(821 191)"/>



<circle class="cls-6" cx="350" cy="65" r="65"/>



<rect class="cls-7" x="285" width="130" height="65"/>



<polygon class="cls-7" points="1164.27 384.89 1097.29 265.29 1106.23 190.18 1219.66 344.71 1164.27 384.89"/>



<path class="cls-6" d="M290.77,478.28a288.46,288.46,0,0,0-2.35,116.39c1.84,9.87,4.42,19.52,7,29.21,2.4,9,4.47,18.23,3.37,27.63-2.13,18.13-13.71,33.85-24.05,48.25-4.48,6.23,5.85,12.18,10.28,6,10.39-14.47,21.22-29.91,24.71-47.74,3.88-19.81-3.75-38.31-8-57.37a273.51,273.51,0,0,1,.48-119.21c1.7-7.46-9.78-10.65-11.48-3.17Z" transform="translate(821 191)"/>



<path class="cls-6" d="M267.47,734.66c7.66,0,7.68-11.91,0-11.91s-7.67,11.91,0,11.91Z" transform="translate(821 191)"/>



<path class="cls-6" d="M250.73,759.21c7.66,0,7.67-11.9,0-11.9s-7.68,11.9,0,11.9Z" transform="translate(821 191)"/>



<path class="cls-6" d="M506.41,433c23.82,24.89,59.08,28.45,91.19,34,29.61,5.07,66.82,15.91,75.22,49.16,1.87,7.42,13.36,4.28,11.48-3.16-8.37-33.15-42-49.11-72.74-55.46-32.88-6.81-71.86-6.94-96.73-32.92-5.31-5.55-13.73,2.88-8.42,8.42Z" transform="translate(821 191)"/>



<line class="cls-8" x1="822" y1="345.99" x2="1452.35" y2="345.99"/>



<line class="cls-8" x1="860.65" y1="360.44" x2="1491" y2="360.44"/>

</g><g id="Layer_5" data-name="Layer 5">

<path class="cls-9" d="M195.39,358.09c.33.37.49.33.67.32C195.72,358.07,195.51,358,195.39,358.09Z" transform="translate(821 191)"/>



<polygon class="cls-9" points="1017.07 549.42 1017.07 549.41 1017.06 549.41 1017.07 549.42"/>



<path class="cls-9" d="M206.28,324.56l-.06.09A.08.08,0,0,0,206.28,324.56Z" transform="translate(821 191)"/>

<path class="cls-9" d="M203.28,355.63l-.41-.68c.3-.21.58.71.77.35-.51-1,.54-.21.31-.78.05.08.21,0,.4.31-.3-.54.06-.21.06-.4s-.12-.14-.25-.28l.09-.31c.18.11.4.4.36.51.65-.16,3.53-1.41,3.91-2.07-.34-.33-.34.05-.82-.5-.09-.44.3,0,.12-.44.68.85.47,0,1.22.8l-.31-.53.29.25c.28-1,0-.35.63-.65.27-.32-.07-1.12.3-1,0,0-.33-.24-.33-.43.33.43,0-.48.36-.07,0-.11.35-.26-.18-.78.27.26.6.2.64.57.1-.05.24,0,.2-.19l-.22-.09c.21-.29.7.06.47-.61l-.27-.16c.13-.16.23-.31.74.23l0,.3a.87.87,0,0,0,.39-.85l-.09,0c-.15-.8,1-2.41.64-3.33l-.46-.35-.08-.55a1.1,1.1,0,0,0,.15.24l.34.51a4.2,4.2,0,0,1,.4.65c.45-.41,2.61-2.71,3.27-2.78.37.1.61.66.66.74.08-.34-.29-.54-.08-.65s.27.35.3.43c0-.12.23,0,.07-.23s-.64-.65-1-1l.27-.14.28.35c.06,0-.65-1-.28-1,.5-.17.8-.63,1.25-.88a1.06,1.06,0,0,1,.21.58c.06,0,.09-.15.26,0-.39-.28,0-.38-.24-.47-.44-1.05.56-.61.32-1.38-.61-.76-10.59-13-11.38-13.84.08-.05.16-.09.24,0-.19-.19-.41-.18-.37,0l.4.47c0,.31-.28-.24-.41-.07-.34-.38-.28-.58-.18-.73-.15.06-.51-.12-.19.33-.24-.06-.4-.47-.67-.53,0,.19.22.67-.08.53l-.05-.06c-.6-.18.12.91-.45.72l-.09-.15c-.27-.15-.17.28-.52.17.1,0,.38.29.33.41-.38-.1-.28.25-.66.05l.2.48c-.65.43-2.58,2.93-3.16,3.47l0-.08c-.79.94-2.76,2.39-3.37,3.67-.44-.29-.59,0-.83,0,.21.1.38.4.3.44-.53.31.16.3-.22.83-.31.8-2.88,1.92-3.63,1.92.11.79-.55.56-.57,1.13l-.07-.16c-.15.43-2.22,1-2.44,1.39l.1.06c-.07.57-.44-.13-.82-.19a1.63,1.63,0,0,1,.37,1.34l-.09-.15c-.08.21-.06,1-.27,1.27l-.21-.38c0,.53-.48.6-.61.74-.44.05-1.38-.3-1.55.48l-.94-.92,0,.14s1.78,3.38,3.83,7.07,4.37,7.69,5.54,8.9l.21.39.11-.14c.28.1.1-.39.31,0l-.26.08c.23,0,.23.29.29.54a.48.48,0,0,1,.32.09c0-.17-.12-.15-.19-.21s-.07-.63.14-.51c.19-.07.37.61.6.53a10.21,10.21,0,0,0,3.56-1.26c.12.14.09.16.1.24.23-.36.55-.47.74-.83a2.65,2.65,0,0,1,.47.48C201.56,356.65,203.21,355.58,203.28,355.63Z" transform="translate(821 191)"/>



<path class="cls-9" d="M215.31,398.84a12,12,0,0,0,3.5-2.17A9.74,9.74,0,0,0,215.31,398.84Z" transform="translate(821 191)"/>



<path class="cls-9" d="M218.84,396.66v0l0,0Z" transform="translate(821 191)"/>



<path class="cls-9" d="M462.1,210.1l-1.15.67A9.33,9.33,0,0,0,462.1,210.1Z" transform="translate(821 191)"/>



<path class="cls-9" d="M280,352.66l-.26-.79c3.05-2.14,1.41.13,4.12-2,.46-1.7,4.79-3.14,5.43-4.31,0,.09,1.44-.83,1.55-.48.08-.8,1.35-1.1,2.14-1.83.22-.36-.34,0-.68,0l1.89-1.56c.9-.37,1.3-.21.48.43L313,330.32c7.78-5.1,15.65-10.2,18.44-12.22-1,.1-2.59,1.53-3.67,1.37,1.29-1.34,2.31-1.35,2.75-2.15,1.18.52,3.47-2,5.22-1.83l.1-.8,1-.18c6.32-4.93,1.34-1.29,7.36-5,3.38-2.31,4.55-4.09,6.64-5.07-.29.18-1.25.36-.45-.35.45.35,2.16-1.87,2.9-1.69.83-.63,3.7-2.41,2.34-2.41.68,0,3.28-1.51,1.95-.27a12.74,12.74,0,0,0,2.27-1.51l-1.2.54c2.81-2,4.71-2.48,6.22-4.25l-1.22.44c1.7-1.14,3.11-2.11,4.18-1.93l-1.65,1.32a55.68,55.68,0,0,0,6.73-4.85L372,290c2.63-2.59,18.27-13.18,20.61-15.72l-1.6.34,2.17-1.93c-.29.17-.19,2.29-.53,2.29,2.57-1.68,10.57-6.8,18.56-11.82s16-9.88,18.52-11.2c2.11-.92.82.55.84.64,2.26-1.62.71-1.14,2.76-2.32.6-.24.11.45-.16.71.85-.59,1.78-.91,1.71-1.18-1.22.49-1.11-.4-1.81-.51l2.63-1.5.12.45c.58-.33.85-1.92,3.53-3.24,4.42-2.41,9-5.35,13.45-7.75.07.27-.77.93-1.61,1.6a10,10,0,0,1,2.09-1.05c-1.29.2,1.67-1.33.75-1,2.66-2.78,7.28-4.36,9.76-6.53-.12-.5-.64-5-1.16-9.52s-1-9.08-1.31-9.59a16.08,16.08,0,0,1,2.16-1,7.77,7.77,0,0,0-3.09,1.43l.13.64c-2.08,1.4-.69,0-2.8,1.18-.36-.39,1.55-1.57,3.26-2.57-1.59.81-3.32,1.35-3.68,2.18-1.57.63-.14-.63-2,.16a18.38,18.38,0,0,1-4.18,2.72l0-.1c-3.7,1.54-4.88,3.72-8.28,5.09l.25-.35c-1.26.39-3.25,2-5.41,2.89.62-.25,1.3-.22.13.54-2.44,1.08-3.83,2.28-5.7,2.93l-1.34,1.38c-2,1.16-5.44,3.22-9.57,5.78l-13.77,8.64-23.08,14.82.26-.26c-11.81,7.68-36.2,23.18-48,31.74-2.15.81-4.69,2.6-6.74,3.77,1.21-.54,1,0,.16.53-6,3.89-.22.55-6.14,4.71-6.72,4.93-33.53,22.18-39.83,26.1-2.87,2.84-7.27,5.19-10.23,7.77l.23-.36c-3.29,2.59-23.1,15.63-26.86,18.78l.59-.3c-3.19,2.85-3.18,1.87-6.05,3.63.84.4-1.85,2.88-2.93,3.77l-.06-.17c-1.61,1.37-5,4.78-7.71,6.94l-.16-.44c-2,2.11-6.51,5.2-8.11,6.57-3.85,2.85-10.2,6.64-14.74,11.41l-4,1.75-.38.5a32.82,32.82,0,0,0,3.59,7.49c2.36,3.54,5.8,6.67,9.93,5.31l.2.41,1.17-1.06c1.6-1.07,1.94-2,2.12-1.61l-2,1.65c1.54-1.14.67-.1.28.56a16.2,16.2,0,0,1,1.83-1.25c.18-.37-.33,0-.62.16a12.36,12.36,0,0,1,2.6-2.68c1.52-1.23.53.46,2.33-1,2.47-1.81,4.91-3.62,7.35-5.42s4.85-3.59,7.36-5.33,5-3.53,7.45-5.34l7.49-5.47c.34,0,.06.17-.18.45,3-2.36,5.71-4.26,8.38-6.43a3.11,3.11,0,0,1,1.59-.34c-.34,0,3.44-2.85,7.42-5.65l5.52-3.9C278.91,353.41,280,352.69,280,352.66Z" transform="translate(821 191)"/>



<path class="cls-9" d="M280.25,404a15,15,0,0,0,4.27-2A13.07,13.07,0,0,0,280.25,404Z" transform="translate(821 191)"/>



<path class="cls-9" d="M284.55,402l0,0-.05,0Z" transform="translate(821 191)"/>



<path class="cls-9" d="M566,206.18l-1.29.74A12.38,12.38,0,0,0,566,206.18Z" transform="translate(821 191)"/>



<path class="cls-9" d="M357.61,358.17l-.19-.83c3.55-2.2,1.52.14,4.7-2,.7-1.75,5.53-3.26,6.35-4.47,0,.1,1.65-.86,1.74-.5.17-.83,1.58-1.14,2.51-1.9.28-.37-.36,0-.74,0l2.22-1.61c1-.39,1.43-.22.47.44,6.19-3.56,35.74-20.95,42.15-25.21-1.09.12-2.95,1.62-4.1,1.47,1.52-1.41,2.63-1.44,3.17-2.27,1.23.52,3.95-2.11,5.84-2l.18-.83,1.06-.21c7.3-5.2,1.57-1.33,8.42-5.33,3.87-2.46,5.29-4.33,7.64-5.38-.33.19-1.39.39-.46-.36.46.36,2.51-2,3.28-1.81,1-.66,4.22-2.56,2.75-2.53.74,0,3.69-1.64,2.15-.32a16.24,16.24,0,0,0,2.59-1.62l-1.36.58c3.22-2.08,5.31-2.68,7.1-4.54l-1.37.48c1.94-1.22,3.55-2.26,4.7-2.1l-1.9,1.41a73.12,73.12,0,0,0,7.69-5.19l-1,.57c3.07-2.73,20.83-14.16,23.55-16.85l-1.76.4,2.5-2.06c-.33.19-.38,2.37-.74,2.38,5.83-3.61,36.18-22.29,41.82-25.16,2.36-1,.86.54.88.63,2.56-1.77.84-1.2,3.14-2.51.67-.28.1.46-.21.74,1-.65,2-1,1.92-1.3-1.35.56-1.18-.36-1.94-.44l3-1.68.1.46c.66-.38,1-2,4-3.5,4.95-2.68,10.13-5.93,15.07-8.66.06.27-.89,1-1.84,1.73A13.06,13.06,0,0,1,555,235.1c-1.41.28,1.9-1.45.88-1.09,3-3,8.16-4.83,11-7.25-.1-.5-.47-5.08-.82-9.71s-.71-9.27-1-9.77a18.66,18.66,0,0,1,2.4-1.18,9.59,9.59,0,0,0-3.44,1.63l.12.64c-2.33,1.55-.75,0-3.11,1.36-.38-.38,1.76-1.69,3.67-2.81-1.76.92-3.68,1.56-4.12,2.44-1.73.72-.12-.65-2.19.26-1.35.91-2.91,2.38-4.63,3l0-.09c-4.09,1.75-5.47,4-9.23,5.61l.29-.36c-1.4.45-3.61,2.21-6,3.24.68-.28,1.42-.29.12.55-2.71,1.21-4.28,2.51-6.34,3.26L531,226.32c-4.47,2.55-15.28,9.17-26.1,15.81l-26,16.05.31-.27C466,266.19,438.45,282.83,425,291.84a71,71,0,0,0-7.59,4c1.35-.58,1.11,0,.13.55-6.83,4.1-.28.57-7.05,4.94-7.68,5.21-38.21,23.28-45.44,27.24-3.39,2.93-8.38,5.36-11.83,8l.29-.37c-3.83,2.66-26.59,15.91-31.05,19l.67-.29c-3.77,2.86-3.64,1.85-6.93,3.6.84.43-2.35,3-3.63,3.82l0-.19c-1.91,1.34-6,4.72-9.21,6.84l-.1-.45c-2.47,2.09-7.68,5.11-9.61,6.36-4.56,2.65-11.86,6.28-17.51,10.58l-4.54,1.38-.5.47a32.69,32.69,0,0,0,2.23,8.11c1.72,3.91,4.65,7.53,9.41,6.43l.12.45,1.5-1c2-1,2.54-2,2.65-1.51l-2.55,1.56c1.92-1.07.75,0,.18.61a22.26,22.26,0,0,1,2.26-1.16c.28-.38-.36,0-.7.12a15.7,15.7,0,0,1,3.4-2.6c1.94-1.17.51.53,2.77-.83,11.94-7.1,23.67-13.8,35.58-21.29.37,0,0,.18-.26.47,3.51-2.4,6.75-4.33,9.93-6.53a3.87,3.87,0,0,1,1.77-.32c-.37,0,4.12-2.88,8.74-5.78l6.45-4C356.29,358.93,357.53,358.19,357.61,358.17Z" transform="translate(821 191)"/>

</g>

<g id="Layer_4" data-name="Layer 4"><line class="cls-10" x1="1298.38" y1="235" x2="1298.38" y2="256"/>

<line class="cls-10" x1="1309" y1="245.5" x2="1288" y2="245.5"/>

<line class="cls-10" x1="1331.38" y1="235" x2="1331.38" y2="256"/>

<line class="cls-10" x1="1342" y1="245.5" x2="1321" y2="245.5"/>

<line class="cls-10" x1="1364.38" y1="235" x2="1364.38" y2="256"/>

<line class="cls-10" x1="1375" y1="245.5" x2="1354" y2="245.5"/>

<line class="cls-10" x1="1398.38" y1="235" x2="1398.38" y2="256"/>

<line class="cls-10" x1="1409" y1="245.5" x2="1388" y2="245.5"/>

<line class="cls-10" x1="1428.38" y1="235" x2="1428.38" y2="256"/>

<line class="cls-10" x1="1439" y1="245.5" x2="1418" y2="245.5"/>

<line class="cls-10" x1="1298.38" y1="295" x2="1298.38" y2="316"/>

<line class="cls-10" x1="1309" y1="305.5" x2="1288" y2="305.5"/>

<line class="cls-10" x1="1331.38" y1="295" x2="1331.38" y2="316"/>

<line class="cls-10" x1="1342" y1="305.5" x2="1321" y2="305.5"/>

<line class="cls-10" x1="1364.38" y1="295" x2="1364.38" y2="316"/>

<line class="cls-10" x1="1375" y1="305.5" x2="1354" y2="305.5"/>

<line class="cls-10" x1="1398.38" y1="295" x2="1398.38" y2="316"/>

<line class="cls-10" x1="1409" y1="305.5" x2="1388" y2="305.5"/>

<line class="cls-10" x1="1428.38" y1="295" x2="1428.38" y2="316"/>

<line class="cls-10" x1="1439" y1="305.5" x2="1418" y2="305.5"/>

<line class="cls-10" x1="1138.38" y1="235" x2="1138.38" y2="256"/>

<line class="cls-10" x1="1149" y1="245.5" x2="1128" y2="245.5"/>

<line class="cls-10" x1="1171.38" y1="235" x2="1171.38" y2="256"/>

<line class="cls-10" x1="1182" y1="245.5" x2="1161" y2="245.5"/>

<line class="cls-10" x1="1204.38" y1="235" x2="1204.38" y2="256"/>

<line class="cls-10" x1="1215" y1="245.5" x2="1194" y2="245.5"/>

<line class="cls-10" x1="1238.38" y1="235" x2="1238.38" y2="256"/>

<line class="cls-10" x1="1249" y1="245.5" x2="1228" y2="245.5"/>

<line class="cls-10" x1="1268.38" y1="235" x2="1268.38" y2="256"/>

<line class="cls-10" x1="1279" y1="245.5" x2="1258" y2="245.5"/>

<line class="cls-10" x1="1138.38" y1="295" x2="1138.38" y2="316"/>

<line class="cls-10" x1="1149" y1="305.5" x2="1128" y2="305.5"/>

<line class="cls-10" x1="1171.38" y1="295" x2="1171.38" y2="316"/>

<line class="cls-10" x1="1182" y1="305.5" x2="1161" y2="305.5"/>

<line class="cls-10" x1="1204.38" y1="295" x2="1204.38" y2="316"/>

<line class="cls-10" x1="1215" y1="305.5" x2="1194" y2="305.5"/>

<line class="cls-10" x1="1238.38" y1="295" x2="1238.38" y2="316"/>

<line class="cls-10" x1="1249" y1="305.5" x2="1228" y2="305.5"/>

<line class="cls-10" x1="1268.38" y1="295" x2="1268.38" y2="316"/>

<line class="cls-10" x1="1279" y1="305.5" x2="1258" y2="305.5"/>

<line class="cls-10" x1="1314.38" y1="266" x2="1314.38" y2="287"/>

<line class="cls-10" x1="1325" y1="276.5" x2="1304" y2="276.5"/>

<line class="cls-10" x1="1347.38" y1="266" x2="1347.38" y2="287"/>

<line class="cls-10" x1="1358" y1="276.5" x2="1337" y2="276.5"/>

<line class="cls-10" x1="1380.38" y1="266" x2="1380.38" y2="287"/>

<line class="cls-10" x1="1391" y1="276.5" x2="1370" y2="276.5"/>

<line class="cls-10" x1="1414.38" y1="266" x2="1414.38" y2="287"/>

<line class="cls-10" x1="1425" y1="276.5" x2="1404" y2="276.5"/>

<line class="cls-10" x1="1444.38" y1="266" x2="1444.38" y2="287"/>

<line class="cls-10" x1="1455" y1="276.5" x2="1434" y2="276.5"/>

<line class="cls-10" x1="1153.38" y1="266" x2="1153.38" y2="287"/>

<line class="cls-10" x1="1164" y1="276.5" x2="1143" y2="276.5"/>

<line class="cls-10" x1="1186.38" y1="266" x2="1186.38" y2="287"/>

<line class="cls-10" x1="1197" y1="276.5" x2="1176" y2="276.5"/>

<line class="cls-10" x1="1219.38" y1="266" x2="1219.38" y2="287"/>

<line class="cls-10" x1="1230" y1="276.5" x2="1209" y2="276.5"/>

<line class="cls-10" x1="1253.38" y1="266" x2="1253.38" y2="287"/>

<line class="cls-10" x1="1264" y1="276.5" x2="1243" y2="276.5"/>

<line class="cls-10" x1="1283.38" y1="266" x2="1283.38" y2="287"/>

<line class="cls-10" x1="1294" y1="276.5" x2="1273" y2="276.5"/>

<line class="cls-10" x1="1314.38" y1="323" x2="1314.38" y2="344"/>

<line class="cls-10" x1="1325" y1="333.5" x2="1304" y2="333.5"/>

<line class="cls-10" x1="1347.38" y1="323" x2="1347.38" y2="344"/>

<line class="cls-10" x1="1358" y1="333.5" x2="1337" y2="333.5"/>

<line class="cls-10" x1="1380.38" y1="323" x2="1380.38" y2="344"/>

<line class="cls-10" x1="1391" y1="333.5" x2="1370" y2="333.5"/>

<line class="cls-10" x1="1414.38" y1="323" x2="1414.38" y2="344"/>

<line class="cls-10" x1="1425" y1="333.5" x2="1404" y2="333.5"/>

<line class="cls-10" x1="1444.38" y1="323" x2="1444.38" y2="344"/>

<line class="cls-10" x1="1455" y1="333.5" x2="1434" y2="333.5"/>

<line class="cls-10" x1="1314.38" y1="383" x2="1314.38" y2="404"/>

<line class="cls-10" x1="1325" y1="393.5" x2="1304" y2="393.5"/>

<line class="cls-10" x1="1347.38" y1="383" x2="1347.38" y2="404"/>

<line class="cls-10" x1="1358" y1="393.5" x2="1337" y2="393.5"/>

<line class="cls-10" x1="1380.38" y1="383" x2="1380.38" y2="404"/>

<line class="cls-10" x1="1391" y1="393.5" x2="1370" y2="393.5"/>

<line class="cls-10" x1="1414.38" y1="383" x2="1414.38" y2="404"/>

<line class="cls-10" x1="1425" y1="393.5" x2="1404" y2="393.5"/>

<line class="cls-10" x1="1444.38" y1="383" x2="1444.38" y2="404"/>

<line class="cls-10" x1="1455" y1="393.5" x2="1434" y2="393.5"/>

<line class="cls-10" x1="1154.38" y1="323" x2="1154.38" y2="344"/>

<line class="cls-10" x1="1165" y1="333.5" x2="1144" y2="333.5"/>

<line class="cls-10" x1="1187.38" y1="323" x2="1187.38" y2="344"/>

<line class="cls-10" x1="1198" y1="333.5" x2="1177" y2="333.5"/>

<line class="cls-10" x1="1220.38" y1="323" x2="1220.38" y2="344"/>

<line class="cls-10" x1="1231" y1="333.5" x2="1210" y2="333.5"/>

<line class="cls-10" x1="1254.38" y1="323" x2="1254.38" y2="344"/>

<line class="cls-10" x1="1265" y1="333.5" x2="1244" y2="333.5"/>

<line class="cls-10" x1="1284.38" y1="323" x2="1284.38" y2="344"/>

<line class="cls-10" x1="1295" y1="333.5" x2="1274" y2="333.5"/>

<line class="cls-10" x1="1154.38" y1="383" x2="1154.38" y2="404"/>

<line class="cls-10" x1="1165" y1="393.5" x2="1144" y2="393.5"/>

<line class="cls-10" x1="1187.38" y1="383" x2="1187.38" y2="404"/>

<line class="cls-10" x1="1198" y1="393.5" x2="1177" y2="393.5"/>

<line class="cls-10" x1="1220.38" y1="383" x2="1220.38" y2="404"/>

<line class="cls-10" x1="1231" y1="393.5" x2="1210" y2="393.5"/>

<line class="cls-10" x1="1254.38" y1="383" x2="1254.38" y2="404"/>

<line class="cls-10" x1="1265" y1="393.5" x2="1244" y2="393.5"/>

<line class="cls-10" x1="1284.38" y1="383" x2="1284.38" y2="404"/>

<line class="cls-10" x1="1295" y1="393.5" x2="1274" y2="393.5"/>

<line class="cls-10" x1="1330.38" y1="354" x2="1330.38" y2="375"/>

<line class="cls-10" x1="1341" y1="364.5" x2="1320" y2="364.5"/>

<line class="cls-10" x1="1363.38" y1="354" x2="1363.38" y2="375"/>

<line class="cls-10" x1="1374" y1="364.5" x2="1353" y2="364.5"/>

<line class="cls-10" x1="1396.38" y1="354" x2="1396.38" y2="375"/>

<line class="cls-10" x1="1407" y1="364.5" x2="1386" y2="364.5"/>

<line class="cls-10" x1="1430.38" y1="354" x2="1430.38" y2="375"/>

<line class="cls-10" x1="1441" y1="364.5" x2="1420" y2="364.5"/>

<line class="cls-10" x1="1460.38" y1="354" x2="1460.38" y2="375"/>

<line class="cls-10" x1="1471" y1="364.5" x2="1450" y2="364.5"/>

<line class="cls-10" x1="1169.38" y1="354" x2="1169.38" y2="375"/>

<line class="cls-10" x1="1180" y1="364.5" x2="1159" y2="364.5"/>

<line class="cls-10" x1="1202.38" y1="354" x2="1202.38" y2="375"/>

<line class="cls-10" x1="1213" y1="364.5" x2="1192" y2="364.5"/>

<line class="cls-10" x1="1235.38" y1="354" x2="1235.38" y2="375"/>

<line class="cls-10" x1="1246" y1="364.5" x2="1225" y2="364.5"/>

<line class="cls-10" x1="1269.38" y1="354" x2="1269.38" y2="375"/>

<line class="cls-10" x1="1280" y1="364.5" x2="1259" y2="364.5"/>

<line class="cls-10" x1="1299.38" y1="354" x2="1299.38" y2="375"/>

<line class="cls-10" x1="1310" y1="364.5" x2="1289" y2="364.5"/>

<line class="cls-10" x1="1298.38" y1="410" x2="1298.38" y2="431"/>

<line class="cls-10" x1="1309" y1="420.5" x2="1288" y2="420.5"/>

<line class="cls-10" x1="1331.38" y1="410" x2="1331.38" y2="431"/>

<line class="cls-10" x1="1342" y1="420.5" x2="1321" y2="420.5"/>

<line class="cls-10" x1="1364.38" y1="410" x2="1364.38" y2="431"/>

<line class="cls-10" x1="1375" y1="420.5" x2="1354" y2="420.5"/>

<line class="cls-10" x1="1398.38" y1="410" x2="1398.38" y2="431"/>

<line class="cls-10" x1="1409" y1="420.5" x2="1388" y2="420.5"/>

<line class="cls-10" x1="1428.38" y1="410" x2="1428.38" y2="431"/>

<line class="cls-10" x1="1439" y1="420.5" x2="1418" y2="420.5"/>

<line class="cls-10" x1="1298.38" y1="470" x2="1298.38" y2="491"/>

<line class="cls-10" x1="1309" y1="480.5" x2="1288" y2="480.5"/>

<line class="cls-10" x1="1331.38" y1="470" x2="1331.38" y2="491"/>

<line class="cls-10" x1="1342" y1="480.5" x2="1321" y2="480.5"/>

<line class="cls-10" x1="1364.38" y1="470" x2="1364.38" y2="491"/>

<line class="cls-10" x1="1375" y1="480.5" x2="1354" y2="480.5"/>

<line class="cls-10" x1="1398.38" y1="470" x2="1398.38" y2="491"/>

<line class="cls-10" x1="1409" y1="480.5" x2="1388" y2="480.5"/>

<line class="cls-10" x1="1428.38" y1="470" x2="1428.38" y2="491"/>

<line class="cls-10" x1="1439" y1="480.5" x2="1418" y2="480.5"/>

<line class="cls-10" x1="1138.38" y1="410" x2="1138.38" y2="431"/>

<line class="cls-10" x1="1149" y1="420.5" x2="1128" y2="420.5"/>

<line class="cls-10" x1="1171.38" y1="410" x2="1171.38" y2="431"/>

<line class="cls-10" x1="1182" y1="420.5" x2="1161" y2="420.5"/>

<line class="cls-10" x1="1204.38" y1="410" x2="1204.38" y2="431"/>

<line class="cls-10" x1="1215" y1="420.5" x2="1194" y2="420.5"/>

<line class="cls-10" x1="1238.38" y1="410" x2="1238.38" y2="431"/>

<line class="cls-10" x1="1249" y1="420.5" x2="1228" y2="420.5"/>

<line class="cls-10" x1="1268.38" y1="410" x2="1268.38" y2="431"/>

<line class="cls-10" x1="1279" y1="420.5" x2="1258" y2="420.5"/>

<line class="cls-10" x1="1138.38" y1="470" x2="1138.38" y2="491"/>

<line class="cls-10" x1="1149" y1="480.5" x2="1128" y2="480.5"/>

<line class="cls-10" x1="1171.38" y1="470" x2="1171.38" y2="491"/>

<line class="cls-10" x1="1182" y1="480.5" x2="1161" y2="480.5"/>

<line class="cls-10" x1="1204.38" y1="470" x2="1204.38" y2="491"/>

<line class="cls-10" x1="1215" y1="480.5" x2="1194" y2="480.5"/>

<line class="cls-10" x1="1238.38" y1="470" x2="1238.38" y2="491"/>

<line class="cls-10" x1="1249" y1="480.5" x2="1228" y2="480.5"/>

<line class="cls-10" x1="1268.38" y1="470" x2="1268.38" y2="491"/>

<line class="cls-10" x1="1279" y1="480.5" x2="1258" y2="480.5"/>

<line class="cls-10" x1="1314.38" y1="441" x2="1314.38" y2="462"/>

<line class="cls-10" x1="1325" y1="451.5" x2="1304" y2="451.5"/>

<line class="cls-10" x1="1347.38" y1="441" x2="1347.38" y2="462"/>

<line class="cls-10" x1="1358" y1="451.5" x2="1337" y2="451.5"/>

<line class="cls-10" x1="1380.38" y1="441" x2="1380.38" y2="462"/>

<line class="cls-10" x1="1391" y1="451.5" x2="1370" y2="451.5"/>

<line class="cls-10" x1="1414.38" y1="441" x2="1414.38" y2="462"/>

<line class="cls-10" x1="1425" y1="451.5" x2="1404" y2="451.5"/>

<line class="cls-10" x1="1444.38" y1="441" x2="1444.38" y2="462"/>

<line class="cls-10" x1="1455" y1="451.5" x2="1434" y2="451.5"/>

<line class="cls-10" x1="1153.38" y1="441" x2="1153.38" y2="462"/>

<line class="cls-10" x1="1164" y1="451.5" x2="1143" y2="451.5"/>

<line class="cls-10" x1="1186.38" y1="441" x2="1186.38" y2="462"/>

<line class="cls-10" x1="1197" y1="451.5" x2="1176" y2="451.5"/>

<line class="cls-10" x1="1219.38" y1="441" x2="1219.38" y2="462"/>

<line class="cls-10" x1="1230" y1="451.5" x2="1209" y2="451.5"/>

<line class="cls-10" x1="1253.38" y1="441" x2="1253.38" y2="462"/>

<line class="cls-10" x1="1264" y1="451.5" x2="1243" y2="451.5"/>

<line class="cls-10" x1="1283.38" y1="441" x2="1283.38" y2="462"/>

<line class="cls-10" x1="1294" y1="451.5" x2="1273" y2="451.5"/>

<line class="cls-10" x1="1314.38" y1="498" x2="1314.38" y2="519"/>

<line class="cls-10" x1="1325" y1="508.5" x2="1304" y2="508.5"/>

<line class="cls-10" x1="1347.38" y1="498" x2="1347.38" y2="519"/>

<line class="cls-10" x1="1358" y1="508.5" x2="1337" y2="508.5"/>

<line class="cls-10" x1="1380.38" y1="498" x2="1380.38" y2="519"/>

<line class="cls-10" x1="1391" y1="508.5" x2="1370" y2="508.5"/>

<line class="cls-10" x1="1414.38" y1="498" x2="1414.38" y2="519"/>

<line class="cls-10" x1="1425" y1="508.5" x2="1404" y2="508.5"/>

<line class="cls-10" x1="1444.38" y1="498" x2="1444.38" y2="519"/>

<line class="cls-10" x1="1455" y1="508.5" x2="1434" y2="508.5"/>

<line class="cls-10" x1="1314.38" y1="558" x2="1314.38" y2="579"/>

<line class="cls-10" x1="1325" y1="568.5" x2="1304" y2="568.5"/>

<line class="cls-10" x1="1347.38" y1="558" x2="1347.38" y2="579"/>

<line class="cls-10" x1="1358" y1="568.5" x2="1337" y2="568.5"/>

<line class="cls-10" x1="1380.38" y1="558" x2="1380.38" y2="579"/>

<line class="cls-10" x1="1391" y1="568.5" x2="1370" y2="568.5"/>

<line class="cls-10" x1="1414.38" y1="558" x2="1414.38" y2="579"/>

<line class="cls-10" x1="1425" y1="568.5" x2="1404" y2="568.5"/>

<line class="cls-10" x1="1444.38" y1="558" x2="1444.38" y2="579"/>

<line class="cls-10" x1="1455" y1="568.5" x2="1434" y2="568.5"/>

<line class="cls-10" x1="1154.38" y1="498" x2="1154.38" y2="519"/>

<line class="cls-10" x1="1165" y1="508.5" x2="1144" y2="508.5"/>

<line class="cls-10" x1="1187.38" y1="498" x2="1187.38" y2="519"/>

<line class="cls-10" x1="1198" y1="508.5" x2="1177" y2="508.5"/>

<line class="cls-10" x1="1220.38" y1="498" x2="1220.38" y2="519"/>

<line class="cls-10" x1="1231" y1="508.5" x2="1210" y2="508.5"/>

<line class="cls-10" x1="1254.38" y1="498" x2="1254.38" y2="519"/>

<line class="cls-10" x1="1265" y1="508.5" x2="1244" y2="508.5"/>

<line class="cls-10" x1="1284.38" y1="498" x2="1284.38" y2="519"/>

<line class="cls-10" x1="1295" y1="508.5" x2="1274" y2="508.5"/>

<line class="cls-10" x1="1154.38" y1="558" x2="1154.38" y2="579"/>

<line class="cls-10" x1="1165" y1="568.5" x2="1144" y2="568.5"/>

<line class="cls-10" x1="1187.38" y1="558" x2="1187.38" y2="579"/>

<line class="cls-10" x1="1198" y1="568.5" x2="1177" y2="568.5"/>

<line class="cls-10" x1="1220.38" y1="558" x2="1220.38" y2="579"/>

<line class="cls-10" x1="1231" y1="568.5" x2="1210" y2="568.5"/>

<line class="cls-10" x1="1254.38" y1="558" x2="1254.38" y2="579"/>

<line class="cls-10" x1="1265" y1="568.5" x2="1244" y2="568.5"/>

<line class="cls-10" x1="1284.38" y1="558" x2="1284.38" y2="579"/>

<line class="cls-10" x1="1295" y1="568.5" x2="1274" y2="568.5"/>

<line class="cls-10" x1="1330.38" y1="529" x2="1330.38" y2="550"/>

<line class="cls-10" x1="1341" y1="539.5" x2="1320" y2="539.5"/>

<line class="cls-10" x1="1363.38" y1="529" x2="1363.38" y2="550"/>

<line class="cls-10" x1="1374" y1="539.5" x2="1353" y2="539.5"/>

<line class="cls-10" x1="1396.38" y1="529" x2="1396.38" y2="550"/>

<line class="cls-10" x1="1407" y1="539.5" x2="1386" y2="539.5"/>

<line class="cls-10" x1="1430.38" y1="529" x2="1430.38" y2="550"/>

<line class="cls-10" x1="1441" y1="539.5" x2="1420" y2="539.5"/>

<line class="cls-10" x1="1460.38" y1="529" x2="1460.38" y2="550"/>

<line class="cls-10" x1="1471" y1="539.5" x2="1450" y2="539.5"/>

<line class="cls-10" x1="1169.38" y1="529" x2="1169.38" y2="550"/>

<line class="cls-10" x1="1180" y1="539.5" x2="1159" y2="539.5"/>

<line class="cls-10" x1="1202.38" y1="529" x2="1202.38" y2="550"/>

<line class="cls-10" x1="1213" y1="539.5" x2="1192" y2="539.5"/>

<line class="cls-10" x1="1235.38" y1="529" x2="1235.38" y2="550"/>

<line class="cls-10" x1="1246" y1="539.5" x2="1225" y2="539.5"/>

<line class="cls-10" x1="1269.38" y1="529" x2="1269.38" y2="550"/>

<line class="cls-10" x1="1280" y1="539.5" x2="1259" y2="539.5"/>

<line class="cls-10" x1="1299.38" y1="529" x2="1299.38" y2="550"/>

<line class="cls-10" x1="1310" y1="539.5" x2="1289" y2="539.5"/>

</g></svg>